<svg width="20" height="18" viewBox="0 0 20 18" version="1.1" xmlns="http://www.w3.org/2000/svg" xmlns:xlink="http://www.w3.org/1999/xlink">
<title>search</title>
<desc>Created using Figma</desc>
<g id="Canvas" transform="translate(1216 -101)">
<g id="search">
<g id="Vector">
<use xlink:href="#path0_stroke" transform="translate(-1214.2 102)" fill="#4F4F4F"/>
</g>
<g id="Vector">
<use xlink:href="#path1_stroke" transform="translate(-1201.34 114.133)" fill="#4F4F4F"/>
</g>
</g>
</g>
<defs>
<path id="path0_stroke" d="M 14.0752 7.11111C 14.0752 10.4321 11.2039 13.2222 7.53759 13.2222L 7.53759 15.2222C 12.1971 15.2222 16.0752 11.6448 16.0752 7.11111L 14.0752 7.11111ZM 7.53759 13.2222C 3.87131 13.2222 1 10.4321 1 7.11111L -1 7.11111C -1 11.6448 2.87808 15.2222 7.53759 15.2222L 7.53759 13.2222ZM 1 7.11111C 1 3.79011 3.87131 1 7.53759 1L 7.53759 -1C 2.87808 -1 -1 2.57739 -1 7.11111L 1 7.11111ZM 7.53759 1C 11.2039 1 14.0752 3.79011 14.0752 7.11111L 16.0752 7.11111C 16.0752 2.57739 12.1971 -1 7.53759 -1L 7.53759 1Z"/>
<path id="path1_stroke" d="M 3.41234 4.59405C 3.81406 4.97305 4.44696 4.95462 4.82595 4.5529C 5.20494 4.15117 5.18652 3.51828 4.78479 3.13928L 3.41234 4.59405ZM 0.686229 -0.727386C 0.284505 -1.10638 -0.348392 -1.08795 -0.727386 -0.68623C -1.10638 -0.284506 -1.08795 0.348391 -0.68623 0.727385L 0.686229 -0.727386ZM 4.78479 3.13928L 0.686229 -0.727386L -0.68623 0.727385L 3.41234 4.59405L 4.78479 3.13928Z"/>
</defs>
</svg>
