<svg width="18" height="18" viewBox="0 0 18 18" version="1.1" xmlns="http://www.w3.org/2000/svg" xmlns:xlink="http://www.w3.org/1999/xlink">
<title>Vector</title>
<desc>Created using Figma</desc>
<g id="Canvas" transform="translate(-1087 -244)">
<g id="Vector">
<use xlink:href="#path0_stroke" transform="translate(1088 245)" fill="#5152B6"/>
</g>
</g>
<defs>
<path id="path0_stroke" d="M 8 0L 8.89671 -0.442624C 8.72824 -0.783928 8.38062 -1 8 -1C 7.61938 -1 7.27176 -0.783928 7.10329 -0.442624L 8 0ZM 10.472 5.008L 9.57529 5.45062C 9.72083 5.74547 10.002 5.94993 10.3274 5.99749L 10.472 5.008ZM 16 5.816L 16.6977 6.53236C 16.9704 6.26683 17.0686 5.86957 16.9512 5.50757C 16.8339 5.14556 16.5212 4.88155 16.1446 4.82651L 16 5.816ZM 12 9.712L 11.3023 8.99564C 11.0664 9.22538 10.9587 9.55651 11.0144 9.88104L 12 9.712ZM 12.944 15.216L 12.4785 16.1011C 12.8155 16.2783 13.2238 16.2488 13.5317 16.0251C 13.8397 15.8013 13.994 15.4221 13.9296 15.047L 12.944 15.216ZM 8 12.616L 8.46545 11.7309C 8.17407 11.5777 7.82593 11.5777 7.53455 11.7309L 8 12.616ZM 3.056 15.216L 2.07039 15.047C 2.00604 15.4221 2.16029 15.8013 2.46827 16.0251C 2.77624 16.2488 3.18454 16.2783 3.52145 16.1011L 3.056 15.216ZM 4 9.712L 4.98561 9.88104C 5.04127 9.55651 4.93361 9.22538 4.69773 8.99564L 4 9.712ZM 0 5.816L -0.144628 4.82651C -0.521188 4.88155 -0.833868 5.14556 -0.951246 5.50757C -1.06862 5.86957 -0.970351 6.26683 -0.697733 6.53236L 0 5.816ZM 5.528 5.008L 5.67263 5.99749C 5.99798 5.94993 6.27917 5.74547 6.42471 5.45062L 5.528 5.008ZM 7.10329 0.442624L 9.57529 5.45062L 11.3687 4.56538L 8.89671 -0.442624L 7.10329 0.442624ZM 10.3274 5.99749L 15.8554 6.80549L 16.1446 4.82651L 10.6166 4.01851L 10.3274 5.99749ZM 15.3023 5.09964L 11.3023 8.99564L 12.6977 10.4284L 16.6977 6.53236L 15.3023 5.09964ZM 11.0144 9.88104L 11.9584 15.385L 13.9296 15.047L 12.9856 9.54296L 11.0144 9.88104ZM 13.4095 14.3309L 8.46545 11.7309L 7.53455 13.5011L 12.4785 16.1011L 13.4095 14.3309ZM 7.53455 11.7309L 2.59055 14.3309L 3.52145 16.1011L 8.46545 13.5011L 7.53455 11.7309ZM 4.04161 15.385L 4.98561 9.88104L 3.01439 9.54296L 2.07039 15.047L 4.04161 15.385ZM 4.69773 8.99564L 0.697733 5.09964L -0.697733 6.53236L 3.30227 10.4284L 4.69773 8.99564ZM 0.144628 6.80549L 5.67263 5.99749L 5.38337 4.01851L -0.144628 4.82651L 0.144628 6.80549ZM 6.42471 5.45062L 8.89671 0.442624L 7.10329 -0.442624L 4.63129 4.56538L 6.42471 5.45062Z"/>
</defs>
</svg>
